<svg aria-hidden="true" style="position: absolute; width: 0; height: 0; overflow: hidden;" version="1.1" xmlns="http://www.w3.org/2000/svg" xmlns:xlink="http://www.w3.org/1999/xlink">
<defs>
<symbol id="icon-categories1" viewBox="0 0 32 32">
<path stroke-linejoin="round" stroke-linecap="round" stroke-miterlimit="4" stroke-width="2.1333" d="M4 12.667l12-7.333 12 7.333"></path>
<path stroke-linejoin="round" stroke-linecap="round" stroke-miterlimit="4" stroke-width="2.1333" d="M6.667 26.667h18.667"></path>
<path stroke-linejoin="round" stroke-linecap="round" stroke-miterlimit="4" stroke-width="2.1333" d="M13.333 12h5.333"></path>
<path stroke-linejoin="round" stroke-linecap="round" stroke-miterlimit="4" stroke-width="2.1333" d="M8 22.667v-6.667"></path>
<path stroke-linejoin="round" stroke-linecap="round" stroke-miterlimit="4" stroke-width="2.1333" d="M13.333 22.667v-6.667"></path>
<path stroke-linejoin="round" stroke-linecap="round" stroke-miterlimit="4" stroke-width="2.1333" d="M18.667 22.667v-6.667"></path>
<path stroke-linejoin="round" stroke-linecap="round" stroke-miterlimit="4" stroke-width="2.1333" d="M24 22.667v-6.667"></path>
</symbol>
<symbol id="icon-categories2" viewBox="0 0 32 32">
<path d="M28.444 11.556h-7.111c-0.472 0-0.924 0.187-1.257 0.521s-0.521 0.786-0.521 1.257v13.333c0 0.471 0.187 0.924 0.521 1.257s0.786 0.521 1.257 0.521h7.111c0.472 0 0.924-0.187 1.257-0.521s0.521-0.786 0.521-1.257v-13.333c0-0.472-0.187-0.924-0.521-1.257s-0.786-0.521-1.257-0.521zM28.444 13.333v9.778h-7.111v-9.778h7.111zM21.333 26.667v-2.133h7.111v2.133h-7.111z"></path>
<path d="M17.778 19.556h-14.222v-14.222h21.333v4.444h1.778v-4.444c0-0.471-0.187-0.924-0.521-1.257s-0.786-0.521-1.257-0.521h-21.333c-0.471 0-0.924 0.187-1.257 0.521s-0.521 0.786-0.521 1.257v14.222c0 0.472 0.187 0.924 0.521 1.257s0.786 0.521 1.257 0.521h14.222v-1.778z"></path>
<path d="M17.778 23.111h-9.778c-0.236 0-0.462 0.094-0.629 0.26s-0.26 0.393-0.26 0.629c0 0.236 0.094 0.462 0.26 0.629s0.393 0.26 0.629 0.26h9.778v-1.778z"></path>
</symbol>
<symbol id="icon-categories3" viewBox="0 0 32 32">
<path stroke-linejoin="round" stroke-linecap="round" stroke-miterlimit="4" stroke-width="2.1333" d="M25.333 4h-18.667c-0.707 0-1.386 0.281-1.886 0.781s-0.781 1.178-0.781 1.886v18.667c0 0.707 0.281 1.386 0.781 1.886s1.178 0.781 1.886 0.781h18.667c0.707 0 1.386-0.281 1.886-0.781s0.781-1.178 0.781-1.886v-18.667c0-0.707-0.281-1.386-0.781-1.886s-1.178-0.781-1.886-0.781z"></path>
<path stroke-linejoin="round" stroke-linecap="round" stroke-miterlimit="4" stroke-width="2.1333" d="M9.333 9.333h13.333"></path>
<path stroke-linejoin="round" stroke-linecap="round" stroke-miterlimit="4" stroke-width="2.1333" d="M9.333 16h13.333"></path>
<path stroke-linejoin="round" stroke-linecap="round" stroke-miterlimit="4" stroke-width="2.1333" d="M9.333 22.667h8"></path>
</symbol>
<symbol id="icon-categories4" viewBox="0 0 32 32">
<path d="M17.292 11.292c0.093-0.093 0.203-0.167 0.325-0.217s0.252-0.076 0.383-0.076c0.132 0 0.262 0.026 0.383 0.076s0.232 0.124 0.325 0.217l4 4c0.093 0.093 0.167 0.203 0.217 0.325s0.076 0.252 0.076 0.383c0 0.132-0.026 0.262-0.076 0.383s-0.124 0.232-0.217 0.325l-4 4c-0.188 0.188-0.442 0.293-0.708 0.293s-0.52-0.105-0.708-0.293c-0.188-0.188-0.293-0.442-0.293-0.708s0.105-0.52 0.293-0.708l3.294-3.292-3.294-3.292c-0.093-0.093-0.167-0.203-0.217-0.325s-0.076-0.252-0.076-0.383 0.026-0.262 0.076-0.383c0.050-0.121 0.124-0.232 0.217-0.325zM14.708 11.292c-0.093-0.093-0.203-0.167-0.325-0.217s-0.252-0.076-0.383-0.076c-0.132 0-0.262 0.026-0.383 0.076s-0.232 0.124-0.325 0.217l-4 4c-0.093 0.093-0.167 0.203-0.217 0.325s-0.076 0.252-0.076 0.383 0.026 0.262 0.076 0.383c0.050 0.122 0.124 0.232 0.217 0.325l4 4c0.188 0.188 0.442 0.293 0.708 0.293s0.52-0.105 0.708-0.293c0.188-0.188 0.293-0.442 0.293-0.708s-0.105-0.52-0.293-0.708l-3.294-3.292 3.294-3.292c0.093-0.093 0.167-0.203 0.217-0.325s0.076-0.252 0.076-0.383c0-0.132-0.026-0.262-0.076-0.383s-0.124-0.232-0.217-0.325z"></path>
<path d="M6 0h20c1.061 0 2.078 0.421 2.828 1.172s1.172 1.768 1.172 2.828v24c0 1.061-0.421 2.078-1.172 2.828s-1.768 1.172-2.828 1.172h-20c-1.061 0-2.078-0.421-2.828-1.172s-1.172-1.768-1.172-2.828v-2h2v2c0 0.53 0.211 1.039 0.586 1.414s0.884 0.586 1.414 0.586h20c0.53 0 1.039-0.211 1.414-0.586s0.586-0.884 0.586-1.414v-24c0-0.53-0.211-1.039-0.586-1.414s-0.884-0.586-1.414-0.586h-20c-0.53 0-1.039 0.211-1.414 0.586s-0.586 0.884-0.586 1.414v2h-2v-2c0-1.061 0.421-2.078 1.172-2.828s1.768-1.172 2.828-1.172v0z"></path>
<path d="M2 10v-1c0-0.265 0.105-0.52 0.293-0.707s0.442-0.293 0.707-0.293 0.52 0.105 0.707 0.293c0.188 0.188 0.293 0.442 0.293 0.707v1h1c0.265 0 0.52 0.105 0.707 0.293s0.293 0.442 0.293 0.707-0.105 0.52-0.293 0.707c-0.188 0.188-0.442 0.293-0.707 0.293h-4c-0.265 0-0.52-0.105-0.707-0.293s-0.293-0.442-0.293-0.707 0.105-0.52 0.293-0.707c0.188-0.188 0.442-0.293 0.707-0.293h1zM2 16v-1c0-0.265 0.105-0.52 0.293-0.707s0.442-0.293 0.707-0.293 0.52 0.105 0.707 0.293c0.188 0.188 0.293 0.442 0.293 0.707v1h1c0.265 0 0.52 0.105 0.707 0.293s0.293 0.442 0.293 0.707-0.105 0.52-0.293 0.707c-0.188 0.188-0.442 0.293-0.707 0.293h-4c-0.265 0-0.52-0.105-0.707-0.293s-0.293-0.442-0.293-0.707 0.105-0.52 0.293-0.707c0.188-0.188 0.442-0.293 0.707-0.293h1zM2 22v-1c0-0.265 0.105-0.52 0.293-0.707s0.442-0.293 0.707-0.293 0.52 0.105 0.707 0.293c0.188 0.188 0.293 0.442 0.293 0.707v1h1c0.265 0 0.52 0.105 0.707 0.293s0.293 0.442 0.293 0.707-0.105 0.52-0.293 0.707c-0.188 0.188-0.442 0.293-0.707 0.293h-4c-0.265 0-0.52-0.105-0.707-0.293s-0.293-0.442-0.293-0.707 0.105-0.52 0.293-0.707c0.188-0.188 0.442-0.293 0.707-0.293h1z"></path>
</symbol>
<symbol id="icon-categories5" viewBox="0 0 32 32">
<path d="M13 2c-0.796 0-1.559 0.316-2.121 0.879s-0.879 1.326-0.879 2.121v1h-7c-0.796 0-1.559 0.316-2.121 0.879s-0.879 1.326-0.879 2.121v16c0 0.796 0.316 1.559 0.879 2.121s1.326 0.879 2.121 0.879h26c0.796 0 1.559-0.316 2.121-0.879s0.879-1.326 0.879-2.121v-16c0-0.796-0.316-1.559-0.879-2.121s-1.326-0.879-2.121-0.879h-7v-1c0-0.796-0.316-1.559-0.879-2.121s-1.326-0.879-2.121-0.879h-6zM13 4h6c0.265 0 0.52 0.105 0.707 0.293s0.293 0.442 0.293 0.707v1h-8v-1c0-0.265 0.105-0.52 0.293-0.707s0.442-0.293 0.707-0.293zM16.772 17.828l13.228-3.526v10.698c0 0.265-0.105 0.52-0.293 0.707s-0.442 0.293-0.707 0.293h-26c-0.265 0-0.52-0.105-0.707-0.293s-0.293-0.442-0.293-0.707v-10.7l13.228 3.528c0.506 0.135 1.038 0.135 1.544 0zM3 8h26c0.265 0 0.52 0.105 0.707 0.293s0.293 0.442 0.293 0.707v3.232l-13.742 3.664c-0.169 0.045-0.347 0.045-0.516 0l-13.742-3.664v-3.232c0-0.265 0.105-0.52 0.293-0.707s0.442-0.293 0.707-0.293z"></path>
</symbol>
<symbol id="icon-categories6" viewBox="0 0 32 32">
<path stroke-linejoin="round" stroke-linecap="round" stroke-miterlimit="4" stroke-width="2.1333" d="M16 28l2.667-2.667M22 25.333c0.884 0 1.732-0.351 2.357-0.976s0.976-1.473 0.976-2.357c0-0.884-0.351-1.732-0.976-2.357s-1.473-0.976-2.357-0.976c-0.884 0-1.732 0.351-2.357 0.976s-0.976 1.473-0.976 2.357c0 0.884 0.351 1.732 0.976 2.357s1.473 0.976 2.357 0.976v0zM13.333 6.667v0zM10 13.333c0.884 0 1.732-0.351 2.357-0.976s0.976-1.473 0.976-2.357c0-0.884-0.351-1.732-0.976-2.357s-1.473-0.976-2.357-0.976c-0.884 0-1.732 0.351-2.357 0.976s-0.976 1.473-0.976 2.357c0 0.884 0.351 1.732 0.976 2.357s1.473 0.976 2.357 0.976v0zM10.667 21.333v0zM7.333 28c0.884 0 1.732-0.351 2.357-0.976s0.976-1.473 0.976-2.357c0-0.884-0.351-1.732-0.976-2.357s-1.473-0.976-2.357-0.976c-0.884 0-1.732 0.351-2.357 0.976s-0.976 1.473-0.976 2.357c0 0.884 0.351 1.732 0.976 2.357s1.473 0.976 2.357 0.976v0zM24.667 10.667c0.884 0 1.732-0.351 2.357-0.976s0.976-1.473 0.976-2.357c0-0.884-0.351-1.732-0.976-2.357s-1.473-0.976-2.357-0.976c-0.884 0-1.732 0.351-2.357 0.976s-0.976 1.473-0.976 2.357c0 0.884 0.351 1.732 0.976 2.357s1.473 0.976 2.357 0.976z"></path>
</symbol>
<symbol id="icon-categories7" viewBox="0 0 32 32">
<path stroke-linejoin="miter" stroke-linecap="butt" stroke-miterlimit="4" stroke-width="1.0667" d="M29.467 25.001v4.466h-0.933v-4.467c-0.002-1.467-0.585-2.873-1.622-3.91-0.911-0.911-2.106-1.472-3.378-1.596v-0.937c1.519 0.127 2.951 0.788 4.037 1.874 1.212 1.212 1.894 2.856 1.896 4.57 0 0 0 0 0 0z"></path>
<path stroke-linejoin="miter" stroke-linecap="butt" stroke-miterlimit="4" stroke-width="1.0667" d="M21.467 25.001v4.466h-0.933v-4.467c-0.002-1.467-0.585-2.873-1.622-3.91s-2.443-1.621-3.91-1.622h-6.001c-1.467 0.002-2.873 0.585-3.91 1.622s-1.621 2.443-1.622 3.91v4.467h-0.933v-4.466c0.002-1.715 0.684-3.358 1.896-4.571s2.856-1.894 4.571-1.896h5.999c1.715 0.002 3.358 0.684 4.571 1.896s1.894 2.856 1.896 4.571z"></path>
<path stroke-linejoin="miter" stroke-linecap="butt" stroke-miterlimit="4" stroke-width="1.0667" d="M20.533 3.492v-0.937c1.52 0.126 2.953 0.786 4.039 1.872 1.213 1.213 1.894 2.858 1.894 4.573s-0.681 3.36-1.894 4.573c-1.086 1.086-2.52 1.746-4.039 1.872v-0.937c1.272-0.123 2.468-0.684 3.379-1.595 1.038-1.038 1.621-2.445 1.621-3.913s-0.583-2.875-1.621-3.913c-0.911-0.911-2.108-1.472-3.379-1.595z"></path>
<path stroke-linejoin="miter" stroke-linecap="butt" stroke-miterlimit="4" stroke-width="1.0667" d="M15.074 4.399c-0.91-0.608-1.98-0.933-3.074-0.933-1.468 0-2.875 0.583-3.913 1.621s-1.621 2.445-1.621 3.913c0 1.094 0.325 2.164 0.933 3.074s1.472 1.619 2.483 2.038c1.011 0.419 2.124 0.528 3.197 0.315s2.059-0.74 2.833-1.514c0.774-0.774 1.301-1.76 1.514-2.833s0.104-2.186-0.315-3.197c-0.419-1.011-1.128-1.875-2.038-2.483zM8.407 3.623c1.063-0.711 2.314-1.090 3.593-1.090 1.715 0 3.36 0.681 4.573 1.894s1.894 2.858 1.894 4.573c0 1.279-0.379 2.529-1.090 3.593s-1.721 1.892-2.902 2.382c-1.182 0.489-2.482 0.618-3.736 0.368s-2.407-0.865-3.311-1.77-1.52-2.057-1.77-3.311c-0.25-1.254-0.121-2.555 0.368-3.736s1.318-2.192 2.382-2.902z"></path>
</symbol>
<symbol id="icon-categories8" viewBox="0 0 32 32">
<path d="M14.4 6.4c-1.221 0-2.36 0.341-3.331 0.934-0.1-0.537-0.283-1.055-0.542-1.536 1.218-0.674 2.591-1.019 3.983-1s2.755 0.401 3.954 1.108c1.199 0.707 2.193 1.715 2.883 2.924s1.053 2.577 1.053 3.969h4.002c0.636 0 1.246 0.253 1.696 0.704s0.702 1.060 0.702 1.696v9.6c0 0.637-0.253 1.247-0.703 1.697s-1.061 0.703-1.697 0.703h-9.6c-0.636 0-1.247-0.253-1.697-0.703s-0.703-1.061-0.703-1.697v-4c-1.113 0.001-2.214-0.23-3.232-0.68 0.021-0.544 0.032-1.115 0.032-1.72v-0.056c0.941 0.544 2.034 0.856 3.2 0.856v-4c0-0.637 0.253-1.247 0.703-1.697s1.061-0.703 1.697-0.703h4c0-1.697-0.674-3.325-1.875-4.526s-2.828-1.875-4.526-1.875zM22.24 14.4c-0.315 1.537-1.074 2.948-2.183 4.057s-2.52 1.868-4.057 2.183v4.16c0 0.212 0.084 0.416 0.234 0.566s0.354 0.234 0.566 0.234h9.6c0.212 0 0.416-0.084 0.566-0.234s0.234-0.354 0.234-0.566v-9.6c0-0.212-0.084-0.416-0.234-0.566s-0.354-0.234-0.566-0.234h-4.16zM20.598 14.4h-3.798c-0.212 0-0.416 0.084-0.566 0.234s-0.234 0.354-0.234 0.566v3.798c1.107-0.287 2.117-0.864 2.925-1.673s1.386-1.819 1.673-2.925z"></path>
<path d="M7.328 3.4c0.133 0.116 0.224 0.273 0.259 0.446s0.011 0.353-0.067 0.511c-0.014 0.047-0.021 0.095-0.021 0.144 0 0.101 0.026 0.293 0.267 0.533 0.117 0.117 0.206 0.2 0.304 0.291 0.080 0.074 0.165 0.15 0.272 0.256 0.208 0.198 0.427 0.432 0.624 0.725 0.408 0.613 0.634 1.379 0.634 2.494 0 1.365-0.506 2.528-1.294 3.242l0.102 0.118c0.448 0.55 0.709 1.264 0.872 1.968 0.32 1.392 0.32 3.066 0.32 4.232v0.040c0 4.459-0.606 6.989-1.274 8.435-0.336 0.728-0.693 1.192-1.002 1.483-0.126 0.12-0.264 0.227-0.413 0.317-0.068 0.041-0.139 0.077-0.213 0.107 0 0-0.181 0.058-0.299 0.058s-0.299-0.058-0.299-0.058c-0.074-0.029-0.146-0.064-0.213-0.107-0.149-0.090-0.287-0.196-0.413-0.317-0.309-0.293-0.666-0.755-1.002-1.483-0.667-1.446-1.274-3.976-1.274-8.435v-0.040c0-1.168 0-2.84 0.32-4.232 0.163-0.704 0.424-1.418 0.872-1.968 0.032-0.040 0.067-0.080 0.102-0.118-0.789-0.714-1.294-1.877-1.294-3.242 0-0.522 0.139-1.144 0.331-1.718 0.192-0.576 0.461-1.171 0.771-1.651 0.37-0.624 0.89-1.147 1.293-1.499 0.221-0.194 0.452-0.378 0.691-0.549l0.048-0.032 0.014-0.011 0.005-0.003 0.003-0.002c0.147-0.098 0.322-0.144 0.498-0.133s0.343 0.082 0.475 0.198h-0.002zM6.405 11.2c0.613-0.002 1.595-0.688 1.595-2.4 0-0.885-0.174-1.318-0.366-1.606-0.117-0.168-0.251-0.323-0.402-0.462l-0.198-0.186c-0.13-0.122-0.282-0.262-0.4-0.379-0.175-0.173-0.325-0.37-0.446-0.584-0.204 0.214-0.383 0.45-0.534 0.704-0.224 0.344-0.442 0.816-0.603 1.302-0.166 0.496-0.25 0.934-0.25 1.211 0 1.715 0.984 2.4 1.6 2.4h0.005zM5.632 13.171c-0.226 0.277-0.416 0.718-0.552 1.317-0.277 1.197-0.28 2.701-0.28 3.912 0 4.341 0.594 6.611 1.126 7.765 0.176 0.379 0.341 0.632 0.474 0.8 0.133-0.168 0.299-0.421 0.474-0.8 0.533-1.154 1.126-3.424 1.126-7.765 0-1.211-0.003-2.715-0.28-3.912-0.138-0.598-0.326-1.040-0.552-1.317-0.088-0.12-0.204-0.216-0.338-0.281s-0.281-0.096-0.43-0.091h-0.003c-0.148-0.005-0.295 0.027-0.428 0.091s-0.249 0.161-0.337 0.28z"></path>
</symbol>
<symbol id="icon-feedback-star" viewBox="0 0 32 32">
<path fill="#fa9b44" style="fill: var(--color1, #fa9b44)" d="M28.378 11.034l-7.934-1.153-3.547-7.191c-0.097-0.197-0.256-0.356-0.453-0.453-0.494-0.244-1.094-0.041-1.341 0.453l-3.547 7.191-7.934 1.153c-0.219 0.031-0.419 0.134-0.572 0.291-0.185 0.19-0.287 0.446-0.284 0.712s0.112 0.519 0.302 0.704l5.741 5.597-1.356 7.903c-0.032 0.184-0.011 0.373 0.059 0.546s0.187 0.323 0.338 0.432c0.151 0.11 0.33 0.175 0.516 0.188s0.372-0.026 0.537-0.113l7.097-3.731 7.097 3.731c0.194 0.103 0.419 0.138 0.634 0.1 0.544-0.094 0.909-0.609 0.816-1.153l-1.356-7.903 5.741-5.597c0.156-0.153 0.259-0.353 0.291-0.572 0.084-0.547-0.297-1.053-0.844-1.134z"></path>
</symbol>
<symbol id="icon-feedback" viewBox="0 0 32 32">
<path d="M6.111 23.095c-1.373-1.459-2.111-3.095-2.111-5.747 0-4.667 3.276-8.849 8.040-10.917l1.191 1.837c-4.447 2.405-5.316 5.527-5.663 7.495 0.716-0.371 1.653-0.5 2.572-0.415 2.405 0.223 4.301 2.197 4.301 4.652 0 1.238-0.492 2.425-1.367 3.3s-2.062 1.367-3.3 1.367c-0.684-0.006-1.361-0.148-1.99-0.418s-1.198-0.662-1.674-1.154zM19.444 23.095c-1.373-1.459-2.111-3.095-2.111-5.747 0-4.667 3.276-8.849 8.040-10.917l1.191 1.837c-4.447 2.405-5.316 5.527-5.663 7.495 0.716-0.371 1.653-0.5 2.572-0.415 2.405 0.223 4.301 2.197 4.301 4.652 0 1.238-0.492 2.425-1.367 3.3s-2.062 1.367-3.3 1.367c-0.684-0.006-1.361-0.148-1.99-0.418s-1.198-0.662-1.674-1.154z"></path>
</symbol>
<symbol id="icon-footer-facebook" viewBox="0 0 32 32">
<path d="M16-0.034c-8.841 0-16.035 7.192-16.035 16.034s7.194 16.034 16.035 16.034c8.841 0 16.035-7.192 16.035-16.034s-7.194-16.034-16.035-16.034zM16 30.966c-8.252 0-14.965-6.714-14.965-14.966s6.713-14.966 14.965-14.966c8.252 0 14.965 6.714 14.965 14.966s-6.713 14.966-14.965 14.966z"></path>
<path d="M19.5 7h-2.668c-3.398-0.034-3.832 2.069-3.832 4.345v1.655h-1.5c-0.068-0.009-0.137-0.002-0.202 0.020s-0.124 0.058-0.172 0.107c-0.048 0.048-0.085 0.107-0.107 0.172s-0.029 0.134-0.020 0.202v3c-0.009 0.068-0.002 0.137 0.020 0.201s0.058 0.124 0.107 0.172c0.048 0.048 0.107 0.085 0.172 0.107s0.134 0.029 0.202 0.020h1.5v7.5c-0.008 0.068-0.001 0.137 0.021 0.201s0.059 0.123 0.108 0.172c0.049 0.048 0.107 0.085 0.172 0.107s0.134 0.029 0.202 0.020h3.055c0.295 0.034 0.534-0.205 0.44-0.5l0.002-7.5h2.5c0.068 0.009 0.137 0.002 0.201-0.020s0.124-0.058 0.172-0.107c0.048-0.048 0.085-0.107 0.107-0.172s0.029-0.134 0.020-0.201v-3c0.009-0.068 0.002-0.137-0.020-0.202s-0.059-0.124-0.107-0.172c-0.048-0.048-0.107-0.085-0.172-0.107s-0.134-0.029-0.201-0.020h-2.503l0.003-1.5c0.097-0.639 0.097-0.535 0.69-0.5h1.789c0.139-0.031 0.287-0.014 0.391-0.115s0.164-0.239 0.129-0.385v-3c0.009-0.068 0.003-0.137-0.019-0.202s-0.058-0.124-0.107-0.172c-0.048-0.048-0.107-0.085-0.172-0.107s-0.134-0.029-0.201-0.019zM18.965 9.944l-1.254-0.048c-1.553 0-1.683 0.843-1.683 1.706l-0.004 1.896c-0 0.070 0.014 0.14 0.040 0.205s0.066 0.124 0.116 0.174 0.108 0.089 0.173 0.116c0.065 0.027 0.134 0.041 0.205 0.041h2.442v1.932h-2.44c-0.142 0-0.278 0.056-0.378 0.156s-0.157 0.236-0.157 0.378l-0.001 7.501h-2.024v-7.5c0-0.295-0.201-0.534-0.497-0.534h-1.503v-1.932h1.503c0.070 0 0.14-0.014 0.204-0.040s0.124-0.066 0.173-0.116c0.1-0.101 0.118-0.237 0.118-0.379v-2.155c0-2.242 0.453-3.31 2.832-3.31h2.133v1.91h0.001z"></path>
</symbol>
<symbol id="icon-footer-linkedin" viewBox="0 0 32 32">
<path d="M19.515 11.953c-0.678 0-1.18 0.171-1.573 0.387-0.063-0.224-0.27-0.388-0.514-0.339h-2.984c-0.295-0.049-0.534 0.19-0.443 0.5v11c-0.091 0.28 0.148 0.52 0.443 0.5h2.984c0.295 0.020 0.534-0.22 0.534-0.515l-0.001-6.648c-0.001-0.003-0.012-0.321 0.189-0.54 0.161-0.174 0.438-0.263 0.821-0.263 0.638 0 0.922 0.261 1.028 0.845v6.606c-0.105 0.295 0.134 0.535 0.429 0.515h3.145c0.295 0.020 0.534-0.22 0.428-0.515v-6.828c0.105-3.472-2.368-4.705-4.486-4.705zM23.038 23.001h-2.076v-6.121c0-1.181-0.763-1.913-1.99-1.913-0.694 0-1.234 0.204-1.606 0.606-0.517 0.56-0.477 1.27-0.366 1.428v6h-2.022v-9.98h1.916v0.336c-0.001 0.1 0.027 0.198 0.079 0.284s0.128 0.154 0.218 0.198c0.090 0.044 0.19 0.062 0.29 0.052s0.194-0.049 0.273-0.11l0.14-0.108c0.405-0.319 0.824-0.65 1.622-0.65 0.826 0 3.523 0.263 3.523 3.637v6.342h-0.001z"></path>
<path d="M11 6.966c-1.122 0-2.034 0.912-2.034 2.034s0.912 2.034 2.034 2.034c1.122 0 2.034-0.912 2.034-2.034s-0.912-2.034-2.034-2.034zM11 9.966c-0.532 0-0.966-0.434-0.966-0.966s0.434-0.966 0.966-0.966c0.532 0 0.966 0.434 0.966 0.966s-0.434 0.966-0.966 0.966z"></path>
<path d="M12.428 11.951h-2.968c-0.295 0-0.534 0.239-0.46 0.549v11c-0.074 0.28 0.165 0.52 0.46 0.5h2.968c0.295 0.020 0.534-0.22 0.534-0.515v-11c0-0.142-0.056-0.277-0.156-0.378s-0.236-0.156-0.378-0.156zM12 23h-2.006v-9.98h2.006v9.98z"></path>
<path d="M16-0.034c-8.842 0-16.034 7.192-16.034 16.034s7.192 16.034 16.034 16.034c8.842 0 16.034-7.192 16.034-16.034s-7.192-16.034-16.034-16.034zM16 30.966c-8.252 0-14.966-6.714-14.966-14.966s6.714-14.966 14.966-14.966c8.252 0 14.966 6.714 14.966 14.966s-6.714 14.966-14.966 14.966z"></path>
</symbol>
<symbol id="icon-footer-twitter" viewBox="0 0 32 32">
<path d="M16-0.034c-8.841 0-16.035 7.192-16.035 16.034s7.194 16.034 16.035 16.034c8.841 0 16.035-7.192 16.035-16.034s-7.194-16.034-16.035-16.034zM16 30.966c-8.252 0-14.965-6.714-14.965-14.966s6.713-14.966 14.965-14.966c8.252 0 14.965 6.714 14.965 14.966s-6.713 14.966-14.965 14.966z"></path>
<path d="M24.794 11.046c0.111-0.205 0.202-0.421 0.273-0.643 0.033-0.103 0.033-0.214 0.002-0.317s-0.094-0.195-0.178-0.263c-0.085-0.068-0.188-0.108-0.296-0.115s-0.216 0.018-0.309 0.072c-0.512 0.304-1.067 0.531-1.646 0.673-0.703-0.634-1.615-0.986-2.562-0.987-0.514 0-1.023 0.105-1.496 0.306s-0.9 0.497-1.257 0.868-0.634 0.81-0.816 1.291c-0.182 0.481-0.266 0.994-0.245 1.507-2.249-0.283-4.303-1.421-5.735-3.178-0.055-0.067-0.125-0.119-0.204-0.153s-0.166-0.048-0.252-0.041c-0.086 0.007-0.169 0.034-0.242 0.080s-0.134 0.109-0.178 0.183c-0.328 0.563-0.506 1.201-0.518 1.852s0.144 1.295 0.452 1.869c-0.075 0.013-0.148 0.039-0.214 0.078-0.081 0.052-0.147 0.123-0.194 0.207s-0.070 0.178-0.070 0.274c0 1.135 0.505 2.177 1.319 2.885l-0.035 0.035c-0.061 0.070-0.104 0.154-0.123 0.245s-0.014 0.185 0.015 0.273c0.17 0.529 0.453 1.016 0.83 1.424s0.839 0.73 1.354 0.941c-1.056 0.515-2.239 0.716-3.406 0.579-0.12-0.012-0.241 0.016-0.343 0.079s-0.181 0.16-0.223 0.273c-0.040 0.114-0.041 0.238-0.002 0.352s0.116 0.212 0.217 0.278c1.587 1.019 3.433 1.56 5.319 1.559 6.18 0 9.874-5.020 9.874-9.873l-0.001-0.164c0.599-0.468 1.119-1.028 1.541-1.66 0.064-0.096 0.095-0.209 0.090-0.324s-0.048-0.225-0.121-0.313c-0.073-0.089-0.173-0.152-0.284-0.179s-0.229-0.019-0.335 0.026v0zM23.049 12.801c-0.073 0.052-0.131 0.122-0.17 0.202s-0.057 0.169-0.052 0.259c0.006 0.132 0.009 0.266 0.009 0.398 0 4.328-3.293 8.805-8.804 8.805-0.983 0-1.959-0.164-2.887-0.488 1.112-0.213 2.156-0.69 3.045-1.39 0.086-0.068 0.15-0.162 0.181-0.267s0.030-0.218-0.005-0.323-0.101-0.196-0.19-0.261c-0.089-0.065-0.196-0.102-0.306-0.104-0.431-0.008-0.854-0.118-1.236-0.32s-0.709-0.49-0.959-0.842c0.253-0.017 0.501-0.059 0.742-0.124 0.117-0.031 0.219-0.101 0.291-0.198s0.109-0.216 0.105-0.336c-0.004-0.121-0.049-0.236-0.127-0.328s-0.186-0.154-0.304-0.177c-0.487-0.099-0.938-0.329-1.304-0.664s-0.635-0.764-0.777-1.241c0.266 0.067 0.539 0.106 0.812 0.115 0.235-0.001 0.453-0.145 0.526-0.371s-0.013-0.475-0.212-0.607c-0.47-0.313-0.833-0.765-1.037-1.292s-0.241-1.104-0.106-1.653c1.737 1.782 4.083 2.844 6.568 2.972 0.176 0.001 0.33-0.062 0.437-0.191s0.148-0.3 0.11-0.464c-0.137-0.589-0.076-1.207 0.174-1.757s0.674-1.004 1.207-1.289c0.533-0.285 1.145-0.387 1.742-0.289s1.145 0.389 1.559 0.83c0.062 0.066 0.14 0.116 0.226 0.143s0.178 0.033 0.268 0.016c0.165-0.033 0.328-0.071 0.489-0.115-0.073 0.054-0.148 0.105-0.226 0.151-0.104 0.064-0.183 0.161-0.224 0.275s-0.042 0.239-0.003 0.355 0.117 0.213 0.219 0.278c0.103 0.065 0.224 0.093 0.345 0.080l0.182-0.023c-0.1 0.083-0.203 0.162-0.309 0.237v0z"></path>
</symbol>
<symbol id="icon-hero-marker" viewBox="0 0 32 32">
<path fill="#696973" style="fill: var(--color2, #696973)" opacity="0.5" d="M16 0c-6.662 0-12.063 5.401-12.063 12.063 0 2.228 0.436 4.529 1.688 6.188l10.375 13.75 10.375-13.75c1.137-1.506 1.688-4.169 1.688-6.188 0-6.662-5.401-12.063-12.063-12.063zM16 6.986c2.803 0 5.076 2.273 5.076 5.076s-2.273 5.076-5.076 5.076-5.076-2.273-5.076-5.076c0-2.803 2.273-5.076 5.076-5.076z"></path>
</symbol>
<symbol id="icon-hero-search" viewBox="0 0 32 32">
<path fill="none" stroke="#696973" style="stroke: var(--color2, #696973)" stroke-linejoin="round" stroke-linecap="round" stroke-miterlimit="4" stroke-width="3.2" d="M14 26c6.627 0 12-5.373 12-12s-5.373-12-12-12c-6.627 0-12 5.373-12 12s5.373 12 12 12z"></path>
<path fill="none" stroke="#696973" style="stroke: var(--color2, #696973)" stroke-linejoin="round" stroke-linecap="round" stroke-miterlimit="4" stroke-width="3.2" d="M23 23l7 7"></path>
</symbol>
<symbol id="icon-hero1" viewBox="0 0 31 32">
<path fill="#ffc107" style="fill: var(--color3, #ffc107)" d="M21.449 9.058l-0.581 0.454-0.023-0.030-6.49 5.072 2.254 2.884 4.075-3.185c0.718 2.144 0.062 4.598-1.821 6.069-2.389 1.867-5.841 1.444-7.708-0.945s-1.444-5.841 0.945-7.708c1.103-0.862 2.432-1.23 3.727-1.148l0.446-3.634c-2.226-0.194-4.527 0.412-6.427 1.897-3.982 3.112-4.688 8.864-1.575 12.847s8.864 4.688 12.847 1.575c3.982-3.112 4.688-8.864 1.575-12.847-0.378-0.483-0.797-0.917-1.244-1.303z"></path>
<path fill="#ff3d00" style="fill: var(--color4, #ff3d00)" d="M6.479 17.626l3.727-0.114c-0.599-2.088 0.077-4.422 1.894-5.842 1.103-0.862 2.432-1.23 3.727-1.148l0.446-3.634c-2.226-0.194-4.527 0.412-6.427 1.897-2.77 2.165-3.95 5.606-3.367 8.841z"></path>
<path fill="#4caf50" style="fill: var(--color5, #4caf50)" d="M21.118 23.208c1.863-1.456 2.998-3.491 3.372-5.65l-3.708-0.144c-0.304 1.154-0.977 2.176-1.918 2.91-1.876 1.466-4.403 1.514-6.307 0.314l-0.936 3.65c3.018 1.403 6.694 1.111 9.497-1.080z"></path>
<path fill="#1976d2" style="fill: var(--color6, #1976d2)" d="M21.449 9.058l-0.581 0.454-0.023-0.030-6.49 5.072 2.254 2.884 4.075-3.185c0.34 1.021 0.374 2.12 0.096 3.16l0-0.002 3.708 0.144c-0.046 0.267 1.022-3.59-1.796-7.196-0.378-0.483-0.796-0.917-1.244-1.303z"></path>
</symbol>
<symbol id="icon-hero2" viewBox="0 0 33 32">
<path fill="#095cf3" style="fill: var(--color7, #095cf3)" d="M20.909 23.863l-4.513-7.019c0.216-0.113 0.419-0.23 0.625-0.362 0.98-0.63 1.737-1.479 2.224-2.441l4.954 7.705c0.423 0.659 0.58 1.245 0.484 1.765-0.095 0.518-0.393 0.938-0.883 1.253-0.481 0.309-0.967 0.393-1.494 0.261-0.51-0.128-0.98-0.514-1.397-1.162v0zM10.113 7.030c1.579-2.026 3.924-3.48 6.612-3.133 0.515 0.087 1.124 0.221 1.553 0.564 0.533 0.441-0.654 0.338-0.812 0.333-0.802 0.003-1.565 0.063-2.335 0.263-4.091 1.175-6.138 5.121-6.297 9.306-0.022 1.819 0.294 3.516 0.793 5.284 0.056 0.193 0.152 0.429 0.154 0.628 0.015 0.22-0.32-0.413-0.332-0.432-0.326-0.654-0.577-1.327-0.799-2.019-1.093-3.747-0.721-7.689 1.464-10.793l-0.001 0zM17.697 10.147c0.204 0.318 0.344 0.672 0.411 1.044s0.060 0.753-0.020 1.122-0.232 0.719-0.448 1.029c-0.215 0.31-0.49 0.575-0.807 0.779s-0.672 0.344-1.044 0.411c-0.372 0.067-0.753 0.060-1.122-0.020s-0.719-0.232-1.029-0.448c-0.31-0.215-0.575-0.49-0.779-0.807s-0.344-0.672-0.411-1.044c-0.067-0.372-0.060-0.753 0.020-1.122s0.232-0.719 0.448-1.029c0.215-0.31 0.49-0.575 0.807-0.779s0.672-0.344 1.044-0.411c0.372-0.067 0.753-0.060 1.122 0.020s0.719 0.232 1.029 0.448c0.31 0.215 0.575 0.49 0.779 0.807v0z"></path>
</symbol>
<symbol id="icon-hero3" viewBox="0 0 33 32">
<path fill="#e01e5a" style="fill: var(--color8, #e01e5a)" d="M8.139 17.3c-0.092 0.345-0.252 0.669-0.469 0.953s-0.489 0.522-0.799 0.7-0.652 0.295-1.006 0.341c-0.354 0.046-0.715 0.022-1.060-0.070s-0.669-0.252-0.952-0.469-0.521-0.489-0.7-0.798c-0.179-0.309-0.294-0.651-0.341-1.006s-0.023-0.714 0.070-1.059c0.092-0.345 0.252-0.669 0.469-0.953s0.489-0.522 0.798-0.7 0.651-0.295 1.006-0.341c0.354-0.046 0.715-0.023 1.060 0.070l2.63 0.705-0.704 2.629-0.001-0zM9.453 17.653c0.092-0.345 0.252-0.669 0.469-0.953s0.489-0.522 0.798-0.7c0.309-0.179 0.651-0.295 1.006-0.341s0.714-0.023 1.060 0.070c0.345 0.092 0.669 0.252 0.953 0.469s0.522 0.489 0.7 0.798c0.179 0.309 0.295 0.651 0.341 1.006s0.023 0.715-0.070 1.060l-1.761 6.572c-0.092 0.345-0.252 0.669-0.469 0.953s-0.489 0.522-0.798 0.7c-0.309 0.179-0.651 0.295-1.006 0.341s-0.714 0.023-1.060-0.070c-0.345-0.092-0.669-0.252-0.953-0.469s-0.522-0.489-0.7-0.798c-0.179-0.309-0.295-0.651-0.341-1.006s-0.023-0.715 0.070-1.060l1.761-6.572z"></path>
<path fill="#36c5f0" style="fill: var(--color9, #36c5f0)" d="M14.91 7.802c-0.345-0.092-0.669-0.252-0.953-0.469s-0.522-0.489-0.7-0.799c-0.179-0.31-0.295-0.652-0.341-1.006s-0.022-0.715 0.070-1.060c0.092-0.345 0.252-0.669 0.469-0.953s0.489-0.522 0.798-0.7c0.309-0.179 0.651-0.295 1.006-0.341s0.714-0.023 1.060 0.070c0.345 0.092 0.669 0.252 0.953 0.469s0.522 0.489 0.7 0.798c0.179 0.31 0.295 0.651 0.341 1.006s0.023 0.715-0.070 1.060l-0.705 2.631-2.628-0.705zM14.553 9.136c0.345 0.092 0.669 0.252 0.953 0.469s0.522 0.489 0.7 0.798c0.179 0.309 0.295 0.651 0.341 1.006s0.023 0.714-0.070 1.060c-0.092 0.345-0.252 0.669-0.469 0.953s-0.489 0.522-0.798 0.7c-0.31 0.179-0.651 0.295-1.006 0.341s-0.714 0.023-1.060-0.070l-6.592-1.766c-0.345-0.092-0.669-0.252-0.953-0.469s-0.522-0.489-0.7-0.798-0.295-0.651-0.341-1.005c-0.047-0.354-0.023-0.714 0.070-1.059s0.252-0.669 0.469-0.953 0.489-0.522 0.798-0.7c0.31-0.179 0.651-0.295 1.006-0.341s0.715-0.023 1.060 0.070l6.593 1.765z"></path>
<path fill="#2eb67d" style="fill: var(--color10, #2eb67d)" d="M24.384 14.588c0.092-0.345 0.252-0.669 0.469-0.953s0.489-0.522 0.799-0.7c0.31-0.179 0.652-0.295 1.006-0.341s0.715-0.022 1.060 0.070c0.345 0.092 0.669 0.252 0.953 0.469s0.522 0.489 0.7 0.798c0.179 0.31 0.295 0.651 0.341 1.006s0.023 0.715-0.070 1.060c-0.092 0.345-0.252 0.669-0.469 0.953s-0.489 0.522-0.798 0.7c-0.31 0.179-0.651 0.295-1.006 0.341s-0.715 0.023-1.060-0.070l-2.63-0.705 0.704-2.629zM23.069 14.235c-0.092 0.345-0.252 0.669-0.469 0.953s-0.489 0.522-0.798 0.7c-0.309 0.179-0.651 0.295-1.006 0.341s-0.715 0.023-1.060-0.070c-0.345-0.092-0.669-0.252-0.953-0.469s-0.522-0.489-0.701-0.798c-0.179-0.31-0.295-0.651-0.341-1.006s-0.023-0.715 0.070-1.060l1.766-6.592c0.092-0.345 0.252-0.669 0.469-0.953s0.489-0.522 0.799-0.7c0.31-0.179 0.652-0.295 1.006-0.341s0.715-0.022 1.060 0.070c0.345 0.092 0.669 0.252 0.953 0.469s0.522 0.489 0.7 0.798c0.179 0.31 0.295 0.651 0.341 1.006s0.023 0.715-0.070 1.060l-1.766 6.592z"></path>
<path fill="#ecb22e" style="fill: var(--color11, #ecb22e)" d="M17.618 24.066c0.345 0.092 0.669 0.252 0.953 0.469s0.522 0.489 0.7 0.798c0.179 0.309 0.295 0.651 0.341 1.006s0.023 0.715-0.070 1.060c-0.092 0.345-0.251 0.669-0.469 0.953s-0.489 0.522-0.798 0.701c-0.31 0.179-0.651 0.295-1.006 0.341s-0.715 0.023-1.060-0.070c-0.345-0.092-0.669-0.252-0.953-0.469s-0.522-0.489-0.7-0.799c-0.179-0.31-0.295-0.652-0.341-1.006s-0.022-0.715 0.070-1.060l0.704-2.629 2.629 0.704zM17.97 22.752c-0.345-0.092-0.669-0.252-0.953-0.469s-0.522-0.489-0.7-0.798c-0.179-0.31-0.295-0.651-0.341-1.006s-0.023-0.715 0.070-1.060c0.092-0.345 0.252-0.669 0.469-0.953s0.489-0.522 0.798-0.7c0.309-0.179 0.651-0.295 1.006-0.341s0.715-0.023 1.060 0.070l6.592 1.766c0.345 0.092 0.669 0.252 0.953 0.469s0.522 0.489 0.7 0.798c0.179 0.309 0.295 0.651 0.341 1.006s0.023 0.715-0.070 1.060c-0.092 0.345-0.252 0.669-0.469 0.953s-0.489 0.522-0.798 0.7c-0.309 0.179-0.651 0.295-1.006 0.341s-0.715 0.023-1.060-0.070l-6.592-1.766z"></path>
</symbol>
<symbol id="icon-hero4" viewBox="0 0 29 32">
<path fill="#27346a" style="fill: var(--color12, #27346a)" d="M25.143 6.368c-0.941-1.669-3.050-2.743-5.911-3.343l-8.302-1.741c-0.283-0.059-0.578-0.016-0.832 0.123s-0.45 0.363-0.553 0.633l-8.055 21.198c-0.159 0.418 0.093 0.88 0.531 0.971l5.125 1.075 2.906-7.647c0.213-0.558 0.796-0.88 1.38-0.757l2.435 0.511c4.784 1.004 8.938-0.154 11.212-5.546 0.067-0.159 0.129-0.315 0.187-0.468-0.123-0.102-0.123-0.102 0 0 0.762-2.009 0.73-3.493-0.125-5.009z"></path>
<path fill="#27346a" style="fill: var(--color12, #27346a)" d="M14.111 8.255c0.154-0.037 0.315-0.040 0.47-0.007l6.508 1.365c0.771 0.162 1.479 0.363 2.114 0.606 0.178 0.068 0.353 0.141 0.526 0.22 0.246 0.111 0.485 0.234 0.719 0.368 0.3 0.176 0.575 0.364 0.82 0.569 0.762-2.010 0.73-3.493-0.125-5.009-0.942-1.669-3.050-2.743-5.911-3.343l-8.302-1.742c-0.585-0.123-1.171 0.199-1.384 0.756l-8.055 21.197c-0.16 0.419 0.093 0.88 0.531 0.972l5.126 1.075 6.223-16.374c0.061-0.161 0.16-0.305 0.289-0.419s0.284-0.195 0.451-0.236v0z"></path>
<path fill="#2790c3" style="fill: var(--color13, #2790c3)" d="M25.081 11.846c-2.273 5.391-6.427 6.55-11.212 5.546l-2.436-0.511c-0.585-0.123-1.167 0.2-1.379 0.758l-3.731 9.815c-0.139 0.366 0.081 0.77 0.464 0.85l4.32 0.906c0.248 0.052 0.505 0.014 0.727-0.108s0.393-0.318 0.483-0.554l0.088-0.211 1.897-4.99 0.112-0.274c0.090-0.236 0.261-0.433 0.483-0.554s0.48-0.159 0.727-0.108l0.647 0.136c4.185 0.878 7.819-0.135 9.808-4.851 0.831-1.971 0.984-3.73 0.179-5.157-0.244-0.432-0.579-0.817-0.992-1.161-0.058 0.154-0.119 0.309-0.187 0.468v0z"></path>
<path fill="#1f264f" style="fill: var(--color14, #1f264f)" d="M24.219 10.68c-0.16-0.086-0.323-0.166-0.489-0.241-0.173-0.078-0.349-0.151-0.526-0.219-0.635-0.244-1.343-0.445-2.114-0.607l-6.507-1.365c-0.155-0.033-0.316-0.030-0.47 0.008-0.167 0.041-0.322 0.122-0.451 0.236s-0.228 0.258-0.289 0.419l-3.316 8.727c0.212-0.558 0.795-0.88 1.379-0.758l2.436 0.511c4.784 1.004 8.938-0.154 11.212-5.546 0.067-0.159 0.129-0.315 0.187-0.468-0.247-0.204-0.52-0.394-0.82-0.569-0.076-0.044-0.152-0.087-0.23-0.128z"></path>
</symbol>
<symbol id="icon-post-play" viewBox="0 0 32 32">
<path fill="#ee4f3c" style="fill: var(--color15, #ee4f3c)" d="M7 28c-0.265 0-0.52-0.105-0.707-0.293s-0.293-0.442-0.293-0.707v-22c0-0.174 0.045-0.345 0.131-0.495s0.21-0.277 0.36-0.365c0.15-0.088 0.32-0.136 0.493-0.139s0.345 0.040 0.497 0.124l20 11c0.157 0.086 0.287 0.213 0.379 0.367s0.139 0.33 0.139 0.509-0.048 0.355-0.139 0.509c-0.091 0.154-0.222 0.281-0.379 0.367l-20 11c-0.148 0.081-0.313 0.124-0.482 0.124z"></path>
</symbol>
<symbol id="icon-posts-right-arrow" viewBox="0 0 32 32">
<path d="M2 16c0-0.265 0.105-0.52 0.293-0.707s0.442-0.293 0.707-0.293h23.586l-6.294-6.292c-0.188-0.188-0.293-0.442-0.293-0.708s0.105-0.52 0.293-0.708c0.188-0.188 0.442-0.293 0.708-0.293s0.52 0.106 0.708 0.293l8 8c0.093 0.093 0.167 0.203 0.218 0.325s0.076 0.252 0.076 0.383c0 0.132-0.026 0.262-0.076 0.383s-0.124 0.232-0.218 0.325l-8 8c-0.188 0.188-0.442 0.293-0.708 0.293s-0.52-0.105-0.708-0.293c-0.188-0.188-0.293-0.442-0.293-0.708s0.105-0.52 0.293-0.708l6.294-6.292h-23.586c-0.265 0-0.52-0.105-0.707-0.293s-0.293-0.442-0.293-0.707z"></path>
</symbol>
<symbol id="icon-posts1" viewBox="0 0 32 32">
<path fill="#e01e5a" style="fill: var(--color8, #e01e5a)" d="M6.731 20.165c0 0.44-0.086 0.876-0.255 1.283s-0.415 0.777-0.727 1.088c-0.311 0.311-0.681 0.558-1.088 0.727s-0.843 0.255-1.284 0.254c-0.44 0-0.876-0.086-1.283-0.255s-0.776-0.415-1.087-0.727c-0.311-0.311-0.558-0.681-0.726-1.088s-0.255-0.843-0.254-1.283c-0-0.44 0.086-0.876 0.254-1.283s0.415-0.777 0.727-1.088c0.311-0.311 0.681-0.558 1.088-0.727s0.843-0.255 1.283-0.254h3.353v3.352h-0.001zM8.407 20.165c-0-0.44 0.086-0.876 0.254-1.283s0.415-0.777 0.727-1.088c0.311-0.311 0.681-0.558 1.088-0.727s0.843-0.255 1.283-0.254c0.44-0 0.876 0.086 1.283 0.254s0.777 0.415 1.088 0.727c0.311 0.311 0.558 0.681 0.726 1.088s0.255 0.843 0.255 1.283v8.381c0 0.44-0.086 0.876-0.255 1.283s-0.415 0.777-0.726 1.088-0.681 0.558-1.088 0.727c-0.407 0.168-0.843 0.255-1.283 0.255s-0.876-0.086-1.283-0.255-0.777-0.415-1.088-0.727c-0.311-0.311-0.558-0.681-0.727-1.088s-0.255-0.843-0.254-1.283v-8.381z"></path>
<path fill="#36c5f0" style="fill: var(--color9, #36c5f0)" d="M11.759 6.705c-0.44 0-0.877-0.086-1.284-0.255s-0.777-0.415-1.088-0.727c-0.311-0.311-0.558-0.681-0.726-1.088s-0.255-0.843-0.254-1.284c-0-0.44 0.086-0.876 0.254-1.283s0.415-0.776 0.727-1.088c0.311-0.311 0.681-0.558 1.088-0.727s0.843-0.255 1.283-0.254c0.44-0 0.876 0.086 1.283 0.254s0.777 0.415 1.088 0.727c0.311 0.311 0.558 0.681 0.726 1.088s0.255 0.843 0.255 1.283v3.355l-3.352-0.001zM11.759 8.407c0.44-0 0.876 0.086 1.283 0.254s0.777 0.415 1.088 0.727c0.311 0.311 0.558 0.681 0.726 1.088s0.255 0.843 0.255 1.283c0 0.44-0.086 0.876-0.255 1.283s-0.415 0.777-0.726 1.088c-0.311 0.311-0.681 0.558-1.088 0.726s-0.843 0.255-1.283 0.255h-8.407c-0.44 0-0.876-0.086-1.283-0.254s-0.776-0.415-1.088-0.726c-0.311-0.311-0.558-0.681-0.727-1.087s-0.255-0.843-0.255-1.283c-0-0.44 0.086-0.876 0.254-1.283s0.415-0.777 0.727-1.088 0.681-0.558 1.088-0.727c0.407-0.168 0.843-0.255 1.283-0.254l8.407-0.001z"></path>
<path fill="#2eb67d" style="fill: var(--color10, #2eb67d)" d="M25.193 11.759c-0-0.44 0.086-0.877 0.255-1.284s0.415-0.777 0.727-1.088c0.311-0.311 0.681-0.558 1.088-0.726s0.843-0.255 1.284-0.254c0.44-0 0.876 0.086 1.283 0.254s0.776 0.415 1.088 0.727 0.558 0.681 0.727 1.088c0.168 0.407 0.255 0.843 0.255 1.283s-0.086 0.876-0.255 1.283c-0.168 0.407-0.415 0.777-0.727 1.088s-0.681 0.558-1.088 0.726c-0.407 0.168-0.843 0.255-1.283 0.255h-3.353v-3.352zM23.517 11.759c0 0.44-0.086 0.876-0.255 1.283s-0.415 0.777-0.727 1.088c-0.311 0.311-0.681 0.558-1.088 0.726s-0.843 0.255-1.283 0.255c-0.44 0-0.877-0.086-1.284-0.254s-0.777-0.415-1.088-0.726-0.558-0.681-0.727-1.088c-0.168-0.407-0.255-0.843-0.255-1.283v-8.407c-0-0.44 0.086-0.877 0.255-1.283s0.415-0.777 0.727-1.088c0.311-0.311 0.681-0.558 1.088-0.726s0.843-0.255 1.284-0.254c0.44-0 0.876 0.086 1.283 0.254s0.776 0.415 1.088 0.727 0.558 0.681 0.727 1.088c0.168 0.407 0.255 0.843 0.255 1.283v8.407z"></path>
<path fill="#ecb22e" style="fill: var(--color11, #ecb22e)" d="M20.165 25.193c0.44-0 0.876 0.086 1.283 0.255s0.777 0.415 1.088 0.727c0.311 0.311 0.558 0.681 0.727 1.088s0.255 0.843 0.254 1.283c0.001 0.44-0.086 0.877-0.254 1.284s-0.415 0.777-0.726 1.088c-0.311 0.311-0.681 0.558-1.088 0.727s-0.843 0.255-1.284 0.255c-0.44 0-0.877-0.086-1.283-0.255s-0.777-0.415-1.088-0.727c-0.311-0.312-0.558-0.681-0.727-1.088s-0.255-0.843-0.254-1.284v-3.352h3.352zM20.165 23.517c-0.44 0-0.876-0.086-1.283-0.255s-0.776-0.415-1.088-0.727-0.558-0.681-0.727-1.088c-0.168-0.407-0.255-0.843-0.255-1.283s0.086-0.876 0.255-1.283c0.168-0.407 0.415-0.777 0.727-1.088s0.681-0.558 1.088-0.727c0.407-0.168 0.843-0.255 1.283-0.254h8.407c0.44-0 0.876 0.086 1.283 0.254s0.777 0.415 1.088 0.727c0.311 0.311 0.558 0.681 0.727 1.088s0.255 0.843 0.255 1.283c0 0.44-0.086 0.876-0.255 1.283s-0.415 0.777-0.727 1.088-0.681 0.558-1.088 0.727c-0.407 0.168-0.843 0.255-1.283 0.255h-8.407z"></path>
</symbol>
<symbol id="icon-posts2" viewBox="0 0 32 32">
<path fill="#ffc107" style="fill: var(--color3, #ffc107)" d="M29.074 13.389h-1.074v-0.055h-12v5.333h7.535c-1.099 3.105-4.053 5.333-7.535 5.333-4.418 0-8-3.582-8-8s3.582-8 8-8c2.039 0 3.895 0.769 5.307 2.026l3.771-3.771c-2.381-2.219-5.567-3.588-9.079-3.588-7.363 0-13.333 5.97-13.333 13.333s5.97 13.333 13.333 13.333c7.363 0 13.333-5.97 13.333-13.333 0-0.894-0.092-1.767-0.259-2.611z"></path>
<path fill="#ff3d00" style="fill: var(--color4, #ff3d00)" d="M4.204 9.794l4.381 3.213c1.185-2.935 4.056-5.007 7.415-5.007 2.039 0 3.895 0.769 5.307 2.026l3.771-3.771c-2.381-2.219-5.567-3.588-9.079-3.588-5.121 0-9.563 2.891-11.796 7.127z"></path>
<path fill="#4caf50" style="fill: var(--color5, #4caf50)" d="M16 29.333c3.444 0 6.573-1.318 8.939-3.461l-4.127-3.492c-1.384 1.052-3.074 1.621-4.813 1.62-3.468 0-6.413-2.211-7.522-5.297l-4.348 3.35c2.207 4.318 6.688 7.281 11.87 7.281z"></path>
<path fill="#1976d2" style="fill: var(--color6, #1976d2)" d="M29.074 13.389h-1.074v-0.055h-12v5.333h7.535c-0.526 1.478-1.473 2.769-2.725 3.714l0.002-0.001 4.127 3.492c-0.292 0.265 4.394-3.205 4.394-9.871 0-0.894-0.092-1.767-0.259-2.611z"></path>
</symbol>
<symbol id="icon-posts3" viewBox="0 0 32 32">
<path fill="#095cf3" style="fill: var(--color7, #095cf3)" d="M15.421 28.751v-11.683c0.34 0.031 0.667 0.047 1.011 0.047 1.631 0 3.165-0.427 4.467-1.191v12.824c0 1.096-0.26 1.905-0.767 2.445-0.504 0.537-1.173 0.807-1.988 0.807-0.8 0-1.436-0.269-1.957-0.824-0.504-0.537-0.765-1.347-0.765-2.425zM15.452 0.755c3.393-1.191 7.256-1.127 10.159 1.316 0.54 0.492 1.156 1.111 1.401 1.84 0.293 0.923-1.027-0.097-1.208-0.223-0.947-0.604-1.891-1.111-2.949-1.459-5.708-1.713-11.105 1.383-14.461 6.191-1.403 2.125-2.316 4.363-3.067 6.823-0.080 0.269-0.145 0.62-0.293 0.856-0.149 0.271-0.064-0.728-0.064-0.76 0.112-1.017 0.325-2 0.588-2.983 1.549-5.24 4.972-9.601 9.896-11.601h-0.001zM22.023 10.167c0 0.529-0.104 1.052-0.307 1.541s-0.499 0.932-0.873 1.306c-0.374 0.374-0.818 0.671-1.306 0.873s-1.012 0.306-1.541 0.306c-0.529 0-1.052-0.104-1.541-0.306s-0.932-0.499-1.306-0.873c-0.374-0.374-0.671-0.818-0.873-1.306s-0.306-1.012-0.306-1.541c0-0.529 0.104-1.052 0.306-1.541s0.499-0.932 0.873-1.306c0.374-0.374 0.818-0.67 1.306-0.873s1.012-0.307 1.541-0.307c0.529 0 1.052 0.104 1.541 0.307s0.932 0.499 1.306 0.873c0.374 0.374 0.671 0.818 0.873 1.306s0.307 1.012 0.307 1.541z"></path>
</symbol>
<symbol id="icon-subscribe" viewBox="0 0 32 32">
<path fill="#fff" style="fill: var(--color16, #fff)" d="M29.563 2.441c-0.205-0.204-0.464-0.345-0.747-0.406s-0.577-0.038-0.847 0.065l-25.007 9.463c-0.288 0.111-0.535 0.308-0.707 0.565s-0.261 0.56-0.254 0.869c0.007 0.309 0.109 0.608 0.292 0.857s0.439 0.435 0.732 0.533l0.026 0.008 8.581 3.664c0.167 0.051 0.345 0.057 0.516 0.017s0.327-0.123 0.456-0.242l13.772-12.833c0.041-0.041 0.090-0.074 0.143-0.096s0.111-0.034 0.169-0.034c0.058 0 0.116 0.011 0.169 0.034s0.102 0.055 0.143 0.096c0.041 0.041 0.074 0.090 0.096 0.143s0.034 0.111 0.034 0.169c0 0.058-0.012 0.115-0.034 0.169s-0.055 0.102-0.096 0.143l-12.834 13.766c-0.119 0.128-0.202 0.285-0.242 0.456s-0.033 0.348 0.017 0.516l3.666 8.586c0.004 0.012 0.008 0.024 0.012 0.036 0.2 0.579 0.706 0.988 1.318 1.016h0.063c0.309 0.002 0.611-0.090 0.868-0.262s0.455-0.418 0.57-0.705l9.462-24.995c0.104-0.27 0.128-0.565 0.068-0.849s-0.201-0.544-0.405-0.749z"></path>
</symbol>
</defs>
</svg>
