<svg width="24" height="24" viewBox="0 0 24 24" fill="none" xmlns="http://www.w3.org/2000/svg">
<path d="M21.2837 8.27572L15.3329 7.41087L12.6727 2.0179C12.6001 1.87025 12.4806 1.75072 12.3329 1.67806C11.9626 1.49525 11.5126 1.64759 11.3274 2.0179L8.66727 7.41087L2.71648 8.27572C2.55242 8.29915 2.40242 8.3765 2.28757 8.49369C2.14873 8.63639 2.07223 8.82837 2.07486 9.02746C2.0775 9.22654 2.15907 9.41643 2.30164 9.5554L6.60711 13.7531L5.58992 19.6804C5.56607 19.8183 5.58133 19.9601 5.63396 20.0897C5.6866 20.2194 5.77452 20.3317 5.88774 20.4139C6.00096 20.4962 6.13495 20.545 6.27453 20.555C6.41411 20.5649 6.55368 20.5356 6.67742 20.4702L12.0001 17.6718L17.3227 20.4702C17.4681 20.5476 17.6368 20.5734 17.7985 20.5452C18.2063 20.4749 18.4806 20.0882 18.4102 19.6804L17.3931 13.7531L21.6985 9.5554C21.8157 9.44056 21.8931 9.29056 21.9165 9.1265C21.9798 8.71634 21.6938 8.33665 21.2837 8.27572Z" fill="#FA9B44"/>
</svg>
